<svg xmlns="http://www.w3.org/2000/svg" width="32" height="32" viewBox="0 0 32 32">
    <defs>
        <linearGradient id="bgGradient" x1="0%" y1="0%" x2="100%" y2="100%">
            <stop offset="0%" style="stop-color:#667eea;stop-opacity:1" />
            <stop offset="50%" style="stop-color:#764ba2;stop-opacity:1" />
            <stop offset="100%" style="stop-color:#f093fb;stop-opacity:1" />
        </linearGradient>
        <linearGradient id="codeGradient" x1="0%" y1="0%" x2="100%" y2="100%">
            <stop offset="0%" style="stop-color:#4f46e5;stop-opacity:1" />
            <stop offset="100%" style="stop-color:#7c3aed;stop-opacity:1" />
        </linearGradient>
        <linearGradient id="previewGradient" x1="0%" y1="0%" x2="100%" y2="100%">
            <stop offset="0%" style="stop-color:#ec4899;stop-opacity:1" />
            <stop offset="100%" style="stop-color:#f97316;stop-opacity:1" />
        </linearGradient>
        <filter id="glow">
            <feGaussianBlur stdDeviation="2" result="coloredBlur"/>
            <feMerge>
                <feMergeNode in="coloredBlur"/>
                <feMergeNode in="SourceGraphic"/>
            </feMerge>
        </filter>
    </defs>

    <!-- Background circle with glow -->
    <circle cx="16" cy="16" r="14.5" fill="url(#bgGradient)" filter="url(#glow)"/>

    <!-- Code editor section -->
    <g transform="translate(3, 7)">
        <!-- Editor window -->
        <rect x="0" y="0" width="11" height="9" rx="1.5" fill="#fff" opacity="0.95" stroke="rgba(255,255,255,0.3)" stroke-width="0.5"/>
        <!-- Title bar -->
        <rect x="0" y="0" width="11" height="1.8" rx="1.5" fill="url(#codeGradient)" opacity="0.8"/>
        <!-- Window controls -->
        <circle cx="1.5" cy="0.9" r="0.3" fill="#ff5f57"/>
        <circle cx="2.3" cy="0.9" r="0.3" fill="#ffbd2e"/>
        <circle cx="3.1" cy="0.9" r="0.3" fill="#28ca42"/>
        <!-- Code lines -->
        <line x1="1" y1="3" x2="6" y2="3" stroke="url(#codeGradient)" stroke-width="0.8" opacity="0.8"/>
        <line x1="1" y1="4.5" x2="8.5" y2="4.5" stroke="url(#codeGradient)" stroke-width="0.8" opacity="0.6"/>
        <line x1="1" y1="6" x2="5.5" y2="6" stroke="url(#codeGradient)" stroke-width="0.8" opacity="0.7"/>
        <line x1="1" y1="7.5" x2="7" y2="7.5" stroke="url(#codeGradient)" stroke-width="0.8" opacity="0.5"/>
    </g>

    <!-- Preview section -->
    <g transform="translate(18, 7)">
        <!-- Preview window -->
        <rect x="0" y="0" width="11" height="9" rx="1.5" fill="#fff" opacity="0.95" stroke="rgba(255,255,255,0.3)" stroke-width="0.5"/>
        <!-- Title bar -->
        <rect x="0" y="0" width="11" height="1.8" rx="1.5" fill="url(#previewGradient)" opacity="0.8"/>
        <!-- Window controls -->
        <circle cx="1.5" cy="0.9" r="0.3" fill="#ff5f57"/>
        <circle cx="2.3" cy="0.9" r="0.3" fill="#ffbd2e"/>
        <circle cx="3.1" cy="0.9" r="0.3" fill="#28ca42"/>
        <!-- Preview content -->
        <rect x="1" y="2.5" width="9" height="1.2" rx="0.3" fill="url(#previewGradient)" opacity="0.7"/>
        <rect x="1" y="4.2" width="6.5" height="0.8" rx="0.2" fill="url(#previewGradient)" opacity="0.5"/>
        <rect x="1" y="5.5" width="7.5" height="0.8" rx="0.2" fill="url(#previewGradient)" opacity="0.4"/>
        <circle cx="2" cy="7.2" r="0.6" fill="url(#previewGradient)" opacity="0.6"/>
        <rect x="3.5" y="6.8" width="4" height="0.8" rx="0.2" fill="url(#previewGradient)" opacity="0.4"/>
    </g>

    <!-- Connection arrow with animation -->
    <g opacity="0.9">
        <path d="M 14.5 12 L 17.5 12" stroke="#fff" stroke-width="2" fill="none" stroke-linecap="round"/>
        <polygon points="17,11 19,12 17,13" fill="#fff"/>
    </g>

    <!-- Sparkle effects -->
    <g opacity="0.7">
        <g transform="translate(7, 5)">
            <path d="M 0,-2 L 0.5,0 L 0,2 L -0.5,0 Z" fill="#fff"/>
            <path d="M -2,0 L 0,-0.5 L 2,0 L 0,0.5 Z" fill="#fff"/>
        </g>
        <g transform="translate(25, 25) scale(0.7)">
            <path d="M 0,-2 L 0.5,0 L 0,2 L -0.5,0 Z" fill="#fff"/>
            <path d="M -2,0 L 0,-0.5 L 2,0 L 0,0.5 Z" fill="#fff"/>
        </g>
        <g transform="translate(26, 7) scale(0.5)">
            <path d="M 0,-2 L 0.5,0 L 0,2 L -0.5,0 Z" fill="#fff"/>
            <path d="M -2,0 L 0,-0.5 L 2,0 L 0,0.5 Z" fill="#fff"/>
        </g>
    </g>
</svg>
